<?xml version="1.0" encoding="utf-8"?>
<!-- Generator: Adobe Illustrator 23.0.0, SVG Export Plug-In . SVG Version: 6.00 Build 0)  -->
<svg version="1.1" id="Layer_1" xmlns="http://www.w3.org/2000/svg" xmlns:xlink="http://www.w3.org/1999/xlink" x="0px" y="0px"
	 viewBox="0 0 498 498" style="enable-background:new 0 0 498 498;" xml:space="preserve">
<style type="text/css">
	.st0{fill:none;stroke:#FFFFFF;stroke-width:3;stroke-miterlimit:10;stroke-dasharray:11.9943,7.9962;}
	.st1{fill:#FFFFFF;}
</style>
<g>
	<circle class="st0" cx="249" cy="249" r="238.6"/>
</g>
<g>
	<g>
		<circle class="st1" cx="255" cy="10" r="2.8"/>
	</g>
	<g>
		<path class="st1" d="M255,18.1c-4.5,0-8.1-3.7-8.1-8.1s3.7-8.1,8.1-8.1s8.1,3.7,8.1,8.1S259.5,18.1,255,18.1z M255,2.9
			c-3.9,0-7.1,3.2-7.1,7.1s3.2,7.1,7.1,7.1s7.1-3.2,7.1-7.1S258.9,2.9,255,2.9z"/>
	</g>
</g>
<g>
	<g>
		<circle class="st1" cx="488" cy="242" r="2.8"/>
	</g>
	<g>
		<path class="st1" d="M488,250.1c-4.5,0-8.1-3.7-8.1-8.1s3.7-8.1,8.1-8.1s8.1,3.7,8.1,8.1S492.5,250.1,488,250.1z M488,234.9
			c-3.9,0-7.1,3.2-7.1,7.1s3.2,7.1,7.1,7.1s7.1-3.2,7.1-7.1S491.9,234.9,488,234.9z"/>
	</g>
</g>
<g>
	<g>
		<circle class="st1" cx="250" cy="488" r="2.8"/>
	</g>
	<g>
		<path class="st1" d="M250,496.1c-4.5,0-8.1-3.7-8.1-8.1s3.7-8.1,8.1-8.1s8.1,3.7,8.1,8.1S254.5,496.1,250,496.1z M250,480.9
			c-3.9,0-7.1,3.2-7.1,7.1s3.2,7.1,7.1,7.1c3.9,0,7.1-3.2,7.1-7.1S253.9,480.9,250,480.9z"/>
	</g>
</g>
<g>
	<g>
		<circle class="st1" cx="10" cy="249" r="2.8"/>
	</g>
	<g>
		<path class="st1" d="M10,257.1c-4.5,0-8.1-3.7-8.1-8.1s3.7-8.1,8.1-8.1s8.1,3.7,8.1,8.1S14.5,257.1,10,257.1z M10,241.9
			c-3.9,0-7.1,3.2-7.1,7.1c0,3.9,3.2,7.1,7.1,7.1s7.1-3.2,7.1-7.1C17.1,245.1,13.9,241.9,10,241.9z"/>
	</g>
</g>
</svg>
